{
	"asset":{
		"generator":"Khronos glTF Blender I/O v4.1.63",
		"version":"2.0"
	},
	"scene":0,
	"scenes":[
		{
			"name":"Scene",
			"nodes":[
				0,
				1
			]
		}
	],
	"nodes":[
		{
			"mesh":0,
			"name":"Cube",
			"scale":[
				2,
				0.10000002384185791,
				2
			]
		},
		{
			"mesh":1,
			"name":"Text",
			"translation":[
				-0.9765720367431641,
				0.3634108006954193,
				0.33865001797676086
			]
		}
	],
	"materials":[
		{
			"doubleSided":true,
			"name":"Green",
			"pbrMetallicRoughness":{
				"baseColorFactor":[
					0.014023097231984138,
					0.1516542136669159,
					0.012734122574329376,
					1
				],
				"metallicFactor":0,
				"roughnessFactor":0.5
			}
		},
		{
			"doubleSided":true,
			"name":"shiny-gold",
			"pbrMetallicRoughness":{
				"baseColorFactor":[
					0.6686812043190002,
					0.8003311157226562,
					0.06206682324409485,
					1
				],
				"metallicFactor":0.7614678740501404,
				"roughnessFactor":0.22477063536643982
			}
		},
		{
			"doubleSided":true,
			"name":"silver",
			"pbrMetallicRoughness":{
				"baseColorFactor":[
					0.6286616325378418,
					0.6286616325378418,
					0.6286616325378418,
					1
				],
				"metallicFactor":0.5,
				"roughnessFactor":0.3499999940395355
			}
		},
		{
			"doubleSided":true,
			"name":"black",
			"pbrMetallicRoughness":{
				"baseColorFactor":[
					0.05410296097397804,
					0.05410296097397804,
					0.05410296097397804,
					1
				],
				"metallicFactor":0.23853211104869843,
				"roughnessFactor":0.3073394298553467
			}
		}
	],
	"meshes":[
		{
			"name":"Cube.001",
			"primitives":[
				{
					"attributes":{
						"POSITION":0,
						"NORMAL":1,
						"TEXCOORD_0":2
					},
					"indices":3,
					"material":0
				},
				{
					"attributes":{
						"POSITION":4,
						"NORMAL":5,
						"TEXCOORD_0":6
					},
					"indices":7,
					"material":1
				},
				{
					"attributes":{
						"POSITION":8,
						"NORMAL":9,
						"TEXCOORD_0":10
					},
					"indices":11,
					"material":2
				}
			]
		},
		{
			"name":"Text",
			"primitives":[
				{
					"attributes":{
						"POSITION":12,
						"NORMAL":13,
						"TEXCOORD_0":14
					},
					"indices":15,
					"material":3
				}
			]
		}
	],
	"accessors":[
		{
			"bufferView":0,
			"componentType":5126,
			"count":4951,
			"max":[
				1,
				1,
				1
			],
			"min":[
				-1,
				-1.2000000476837158,
				-1
			],
			"type":"VEC3"
		},
		{
			"bufferView":1,
			"componentType":5126,
			"count":4951,
			"type":"VEC3"
		},
		{
			"bufferView":2,
			"componentType":5126,
			"count":4951,
			"type":"VEC2"
		},
		{
			"bufferView":3,
			"componentType":5123,
			"count":17193,
			"type":"SCALAR"
		},
		{
			"bufferView":4,
			"componentType":5126,
			"count":12141,
			"max":[
				0.875,
				-1,
				0.875
			],
			"min":[
				-0.875,
				-1.999999761581421,
				-0.875
			],
			"type":"VEC3"
		},
		{
			"bufferView":5,
			"componentType":5126,
			"count":12141,
			"type":"VEC3"
		},
		{
			"bufferView":6,
			"componentType":5126,
			"count":12141,
			"type":"VEC2"
		},
		{
			"bufferView":7,
			"componentType":5123,
			"count":31380,
			"type":"SCALAR"
		},
		{
			"bufferView":8,
			"componentType":5126,
			"count":135,
			"max":[
				0.8999999761581421,
				3.499999523162842,
				0.8999999761581421
			],
			"min":[
				-0.8999999761581421,
				1,
				-0.8999999761581421
			],
			"type":"VEC3"
		},
		{
			"bufferView":9,
			"componentType":5126,
			"count":135,
			"type":"VEC3"
		},
		{
			"bufferView":10,
			"componentType":5126,
			"count":135,
			"type":"VEC2"
		},
		{
			"bufferView":11,
			"componentType":5123,
			"count":237,
			"type":"SCALAR"
		},
		{
			"bufferView":12,
			"componentType":5126,
			"count":232,
			"max":[
				1.8660000562667847,
				0,
				0.009000000543892384
			],
			"min":[
				0.04800000041723251,
				0,
				-0.6910000443458557
			],
			"type":"VEC3"
		},
		{
			"bufferView":13,
			"componentType":5126,
			"count":232,
			"type":"VEC3"
		},
		{
			"bufferView":14,
			"componentType":5126,
			"count":232,
			"type":"VEC2"
		},
		{
			"bufferView":15,
			"componentType":5123,
			"count":684,
			"type":"SCALAR"
		}
	],
	"bufferViews":[
		{
			"buffer":0,
			"byteLength":59412,
			"byteOffset":0,
			"target":34962
		},
		{
			"buffer":0,
			"byteLength":59412,
			"byteOffset":59412,
			"target":34962
		},
		{
			"buffer":0,
			"byteLength":39608,
			"byteOffset":118824,
			"target":34962
		},
		{
			"buffer":0,
			"byteLength":34386,
			"byteOffset":158432,
			"target":34963
		},
		{
			"buffer":0,
			"byteLength":145692,
			"byteOffset":192820,
			"target":34962
		},
		{
			"buffer":0,
			"byteLength":145692,
			"byteOffset":338512,
			"target":34962
		},
		{
			"buffer":0,
			"byteLength":97128,
			"byteOffset":484204,
			"target":34962
		},
		{
			"buffer":0,
			"byteLength":62760,
			"byteOffset":581332,
			"target":34963
		},
		{
			"buffer":0,
			"byteLength":1620,
			"byteOffset":644092,
			"target":34962
		},
		{
			"buffer":0,
			"byteLength":1620,
			"byteOffset":645712,
			"target":34962
		},
		{
			"buffer":0,
			"byteLength":1080,
			"byteOffset":647332,
			"target":34962
		},
		{
			"buffer":0,
			"byteLength":474,
			"byteOffset":648412,
			"target":34963
		},
		{
			"buffer":0,
			"byteLength":2784,
			"byteOffset":648888,
			"target":34962
		},
		{
			"buffer":0,
			"byteLength":2784,
			"byteOffset":651672,
			"target":34962
		},
		{
			"buffer":0,
			"byteLength":1856,
			"byteOffset":654456,
			"target":34962
		},
		{
			"buffer":0,
			"byteLength":1368,
			"byteOffset":656312,
			"target":34963
		}
	],
	"buffers":[
		{
			"byteLength":657680,
			"uri":"CPUBlender.bin"
		}
	]
}
